<svg width="672.509375px" height="121.39999999999999px" xmlns="http://www.w3.org/2000/svg" viewBox="-86.25468749999999 14.300000000000004 672.509375 121.39999999999999" style="background: rgba(0, 0, 0, 0);" preserveAspectRatio="xMidYMid"><defs><filter id="editing-extrusion" x="-100%" y="-100%" width="300%" height="300%"><feFlood result="color1" flood-color="#444"></feFlood><feConvolveMatrix order="8,8" divisor="1" kernelMatrix="1 0 0 0 0 0 0 0 0 1 0 0 0 0 0 0 0 0 1 0 0 0 0 0 0 0 0 1 0 0 0 0 0 0 0 0 1 0 0 0 0 0 0 0 0 1 0 0 0 0 0 0 0 0 1 0 0 0 0 0 0 0 0 1" in="SourceAlpha" result="extrude"></feConvolveMatrix><feComposite in="color1" in2="extrude" result="comp-extrude" operator="in"></feComposite><feOffset dx="4" dy="4" in="comp-extrude" result="offset-extrude"></feOffset><feMerge><feMergeNode in="offset-extrude"></feMergeNode><feMergeNode in="SourceGraphic"></feMergeNode></feMerge></filter></defs><g filter="url(#editing-extrusion)"><g transform="translate(11.469985127449036, 104.76000022888184)"><path d="M32.51-26.62L32.51-26.62L32.51-26.62Q32.51-23.94 30.27-22.27L30.27-22.27L30.27-22.27Q28.03-20.61 24.38-20.61L24.38-20.61L24.38-20.61Q22.85-20.61 21.95-21.06L21.95-21.06L21.95-21.06Q22.66-22.72 22.88-24.80L22.88-24.80L22.88-24.80Q23.10-26.88 23.10-27.46L23.10-27.46L23.10-27.46Q23.10-30.14 21.25-30.14L21.25-30.14L21.25-30.14Q19.97-30.14 18.53-28.54L18.53-28.54L18.53-28.54Q17.09-26.94 15.87-24.45L15.87-24.45L15.87-24.45Q13.18-18.69 13.18-12.86L13.18-12.86L13.18-12.86Q13.18-9.66 14.40-8.22L14.40-8.22L14.40-8.22Q15.62-6.78 18.30-6.78L18.30-6.78L18.30-6.78Q22.02-6.78 24.96-9.86L24.96-9.86L24.96-9.86Q25.79-10.82 26.24-11.90L26.24-11.90L26.24-11.90Q28.67-10.62 28.67-7.10L28.67-7.10L28.67-7.10Q28.67-3.52 24.70-1.15L24.70-1.15L24.70-1.15Q20.61 1.28 14.08 1.28L14.08 1.28L14.08 1.28Q1.09 1.28 1.09-12.48L1.09-12.48L1.09-12.48Q1.09-22.53 6.78-28.29L6.78-28.29L6.78-28.29Q12.29-33.92 22.40-33.92L22.40-33.92L22.40-33.92Q32.51-33.92 32.51-26.62ZM48.19 1.28L48.19 1.28L48.19 1.28Q34.11 1.28 34.11-11.97L34.11-11.97L34.11-11.97Q34.11-21.38 39.30-27.46L39.30-27.46L39.30-27.46Q44.80-33.92 54.34-33.92L54.34-33.92L54.34-33.92Q61.25-33.92 64.77-30.72L64.77-30.72L64.77-30.72Q68.29-27.52 68.29-20.80L68.29-20.80L68.29-20.80Q68.29-10.56 62.78-4.61L62.78-4.61L62.78-4.61Q57.41 1.28 48.19 1.28ZM49.86-26.56L49.86-26.56L49.86-26.56Q49.09-24.83 48.48-22.24L48.48-22.24L48.48-22.24Q47.87-19.65 47.10-15.55L47.10-15.55L47.10-15.55Q46.34-11.46 46.34-6.40L46.34-6.40L46.34-6.40Q46.34-4.74 46.88-3.65L46.88-3.65L46.88-3.65Q47.42-2.56 48.90-2.56L48.90-2.56L48.90-2.56Q50.37-2.56 51.30-3.26L51.30-3.26L51.30-3.26Q52.22-3.97 52.93-5.63L52.93-5.63L52.93-5.63Q54.21-8.58 55.23-14.05L55.23-14.05L55.23-14.05Q56.26-19.52 56.35-21.89L56.35-21.89L56.35-21.89Q56.45-24.26 56.45-26.02L56.45-26.02L56.45-26.02Q56.45-27.78 55.94-28.93L55.94-28.93L55.94-28.93Q55.42-30.08 53.98-30.08L53.98-30.08L53.98-30.08Q52.54-30.08 51.58-29.18L51.58-29.18L51.58-29.18Q50.62-28.29 49.86-26.56ZM86.02 1.28L86.02 1.28L86.02 1.28Q71.94 1.28 71.94-11.97L71.94-11.97L71.94-11.97Q71.94-21.38 77.12-27.46L77.12-27.46L77.12-27.46Q82.62-33.92 92.16-33.92L92.16-33.92L92.16-33.92Q99.07-33.92 102.59-30.72L102.59-30.72L102.59-30.72Q106.11-27.52 106.11-20.80L106.11-20.80L106.11-20.80Q106.11-10.56 100.61-4.61L100.61-4.61L100.61-4.61Q95.23 1.28 86.02 1.28ZM87.68-26.56L87.68-26.56L87.68-26.56Q86.91-24.83 86.30-22.24L86.30-22.24L86.30-22.24Q85.70-19.65 84.93-15.55L84.93-15.55L84.93-15.55Q84.16-11.46 84.16-6.40L84.16-6.40L84.16-6.40Q84.16-4.74 84.70-3.65L84.70-3.65L84.70-3.65Q85.25-2.56 86.72-2.56L86.72-2.56L86.72-2.56Q88.19-2.56 89.12-3.26L89.12-3.26L89.12-3.26Q90.05-3.97 90.75-5.63L90.75-5.63L90.75-5.63Q92.03-8.58 93.06-14.05L93.06-14.05L93.06-14.05Q94.08-19.52 94.18-21.89L94.18-21.89L94.18-21.89Q94.27-24.26 94.27-26.02L94.27-26.02L94.27-26.02Q94.27-27.78 93.76-28.93L93.76-28.93L93.76-28.93Q93.25-30.08 91.81-30.08L91.81-30.08L91.81-30.08Q90.37-30.08 89.41-29.18L89.41-29.18L89.41-29.18Q88.45-28.29 87.68-26.56ZM129.92-17.98L129.92-17.98L129.92-17.98Q132.22-22.08 132.22-26.24L132.22-26.24L132.22-26.24Q132.22-28.99 130.24-28.99L130.24-28.99L130.24-28.99Q128.70-28.99 127.10-26.37L127.10-26.37L127.10-26.37Q125.44-23.74 124.93-20.35L124.93-20.35L121.60 0L108.35 1.28L114.88-32.64L125.44-33.92L124.29-27.46L124.29-27.46Q127.42-33.92 134.46-33.92L134.46-33.92L134.46-33.92Q138.18-33.92 140.19-32L140.19-32L140.19-32Q142.21-30.08 142.21-26.14L142.21-26.14L142.21-26.14Q142.21-22.21 139.62-19.71L139.62-19.71L139.62-19.71Q137.02-17.22 132.61-17.22L132.61-17.22L132.61-17.22Q130.69-17.22 129.92-17.98ZM147.78-26.75L147.78-26.75L147.78-26.75Q149.95-29.82 153.25-31.87L153.25-31.87L153.25-31.87Q156.54-33.92 160.58-33.92L160.58-33.92L160.58-33.92Q164.61-33.92 166.53-32.64L166.53-32.64L179.07-33.92L174.72-9.34L174.72-9.34Q172.48 3.20 167.74 8.13L167.74 8.13L167.74 8.13Q163.20 12.80 154.37 12.80L154.37 12.80L154.37 12.80Q147.65 12.80 143.81 10.69L143.81 10.69L143.81 10.69Q139.97 8.58 139.97 5.06L139.97 5.06L139.97 5.06Q139.97 2.43 141.95 0.93L141.95 0.93L141.95 0.93Q143.94-0.58 147.01-0.58L147.01-0.58L147.01-0.58Q149.70-0.58 151.74 0.64L151.74 0.64L151.74 0.64Q152.96 1.28 153.54 2.18L153.54 2.18L153.54 2.18Q152.06 3.46 152.06 5.57L152.06 5.57L152.06 5.57Q152.06 8.32 154.62 8.32L154.62 8.32L154.62 8.32Q158.91 8.32 161.34-1.79L161.34-1.79L161.34-1.79Q162.05-4.54 162.62-7.30L162.62-7.30L162.62-7.30Q159.74-3.78 153.22-3.78L153.22-3.78L153.22-3.78Q148.67-3.78 146.05-5.95L146.05-5.95L146.05-5.95Q143.42-8.13 143.42-13.25L143.42-13.25L143.42-13.25Q143.42-16.45 144.51-20.06L144.51-20.06L144.51-20.06Q145.60-23.68 147.78-26.75ZM156.10-13.06L156.10-13.06L156.10-13.06Q156.10-8.70 158.34-8.70L158.34-8.70L158.34-8.70Q159.87-8.70 161.34-10.37L161.34-10.37L161.34-10.37Q162.50-11.71 162.94-13.70L162.94-13.70L166.21-30.14L166.21-30.14Q165.89-30.21 165.57-30.34L165.57-30.34L165.57-30.34Q164.93-30.59 164.10-30.59L164.10-30.59L164.10-30.59Q160.19-30.59 157.89-24.19L157.89-24.19L157.89-24.19Q156.10-19.20 156.10-13.06ZM195.78-6.40L195.78-6.40L195.78-6.40Q195.78-8.13 196.67-12.48L196.67-12.48L200.06-29.76L196.29-29.76L196.54-31.68L196.54-31.68Q204.22-33.98 211.65-39.62L211.65-39.62L214.72-39.62L213.18-32.64L218.18-32.64L217.60-29.76L212.67-29.76L209.41-12.48L209.41-12.48Q208.58-8.51 208.58-7.17L208.58-7.17L208.58-7.17Q208.58-4.10 211.26-3.46L211.26-3.46L211.26-3.46Q210.62-1.28 208.32 0L208.32 0L208.32 0Q206.02 1.28 202.75 1.28L202.75 1.28L202.75 1.28Q199.49 1.28 197.63-0.77L197.63-0.77L197.63-0.77Q195.78-2.82 195.78-6.40ZM231.55 1.28L231.55 1.28L231.55 1.28Q217.47 1.28 217.47-11.97L217.47-11.97L217.47-11.97Q217.47-21.38 222.66-27.46L222.66-27.46L222.66-27.46Q228.16-33.92 237.70-33.92L237.70-33.92L237.70-33.92Q244.61-33.92 248.13-30.72L248.13-30.72L248.13-30.72Q251.65-27.52 251.65-20.80L251.65-20.80L251.65-20.80Q251.65-10.56 246.14-4.61L246.14-4.61L246.14-4.61Q240.77 1.28 231.55 1.28ZM233.22-26.56L233.22-26.56L233.22-26.56Q232.45-24.83 231.84-22.24L231.84-22.24L231.84-22.24Q231.23-19.65 230.46-15.55L230.46-15.55L230.46-15.55Q229.70-11.46 229.70-6.40L229.70-6.40L229.70-6.40Q229.70-4.74 230.24-3.65L230.24-3.65L230.24-3.65Q230.78-2.56 232.26-2.56L232.26-2.56L232.26-2.56Q233.73-2.56 234.66-3.26L234.66-3.26L234.66-3.26Q235.58-3.97 236.29-5.63L236.29-5.63L236.29-5.63Q237.57-8.58 238.59-14.05L238.59-14.05L238.59-14.05Q239.62-19.52 239.71-21.89L239.71-21.89L239.71-21.89Q239.81-24.26 239.81-26.02L239.81-26.02L239.81-26.02Q239.81-27.78 239.30-28.93L239.30-28.93L239.30-28.93Q238.78-30.08 237.34-30.08L237.34-30.08L237.34-30.08Q235.90-30.08 234.94-29.18L234.94-29.18L234.94-29.18Q233.98-28.29 233.22-26.56ZM275.97-2.69L275.97-2.69L275.97-2.69Q272.90 1.28 265.28 1.28L265.28 1.28L265.28 1.28Q261.31 1.28 258.43-1.12L258.43-1.12L258.43-1.12Q255.55-3.52 255.55-6.98L255.55-6.98L255.55-6.98Q255.55-8.90 255.74-9.86L255.74-9.86L260.03-32.64L273.02-33.92L268.35-9.22L268.35-9.22Q268.10-7.81 268.10-6.98L268.10-6.98L268.10-6.98Q268.10-3.26 270.34-3.26L270.34-3.26L270.34-3.26Q272.83-3.26 274.62-6.66L274.62-6.66L274.62-6.66Q275.20-7.74 275.46-9.15L275.46-9.15L280-32.64L292.61-33.92L287.87-8.96L287.87-8.96Q287.68-8 287.68-6.98L287.68-6.98L287.68-6.98Q287.68-5.95 288.26-4.83L288.26-4.83L288.26-4.83Q288.83-3.71 290.69-3.46L290.69-3.46L290.69-3.46Q290.30-1.92 288.96-0.90L288.96-0.90L288.96-0.90Q286.14 1.28 283.10 1.28L283.10 1.28L283.10 1.28Q280.06 1.28 278.27 0.19L278.27 0.19L278.27 0.19Q276.48-0.90 275.97-2.69ZM316.10-17.98L316.10-17.98L316.10-17.98Q318.40-22.08 318.40-26.24L318.40-26.24L318.40-26.24Q318.40-28.99 316.42-28.99L316.42-28.99L316.42-28.99Q314.88-28.99 313.28-26.37L313.28-26.37L313.28-26.37Q311.62-23.74 311.10-20.35L311.10-20.35L307.78 0L294.53 1.28L301.06-32.64L311.62-33.92L310.46-27.46L310.46-27.46Q313.60-33.92 320.64-33.92L320.64-33.92L320.64-33.92Q324.35-33.92 326.37-32L326.37-32L326.37-32Q328.38-30.08 328.38-26.14L328.38-26.14L328.38-26.14Q328.38-22.21 325.79-19.71L325.79-19.71L325.79-19.71Q323.20-17.22 318.78-17.22L318.78-17.22L318.78-17.22Q316.86-17.22 316.10-17.98ZM344.77-3.52L344.77-3.52L344.77-3.52Q342.78 1.28 336.45 1.28L336.45 1.28L336.45 1.28Q333.18 1.28 331.14-0.96L331.14-0.96L331.14-0.96Q329.41-2.94 329.41-4.93L329.41-4.93L329.41-4.93Q329.41-10.11 331.78-20.22L331.78-20.22L334.14-32.64L347.14-33.92L343.23-13.70L343.23-13.70Q342.14-8.96 342.14-7.30L342.14-7.30L342.14-7.30Q342.14-3.65 344.77-3.52ZM335.30-41.54L335.30-41.54L335.30-41.54Q335.30-44.03 337.38-45.38L337.38-45.38L337.38-45.38Q339.46-46.72 342.46-46.72L342.46-46.72L342.46-46.72Q345.47-46.72 347.30-45.38L347.30-45.38L347.30-45.38Q349.12-44.03 349.12-41.54L349.12-41.54L349.12-41.54Q349.12-39.04 347.10-37.76L347.10-37.76L347.10-37.76Q345.09-36.48 342.08-36.48L342.08-36.48L342.08-36.48Q339.07-36.48 337.18-37.76L337.18-37.76L337.18-37.76Q335.30-39.04 335.30-41.54ZM369.34-22.46L369.34-22.46L369.34-22.46Q370.24-24.83 370.24-26.88L370.24-26.88L370.24-26.88Q370.24-30.66 367.17-30.66L367.17-30.66L367.17-30.66Q365.57-30.66 364.26-29.22L364.26-29.22L364.26-29.22Q362.94-27.78 362.94-25.98L362.94-25.98L362.94-25.98Q362.94-24.70 363.97-23.68L363.97-23.68L363.97-23.68Q365.44-22.27 369.22-19.97L369.22-19.97L369.22-19.97Q372.99-17.66 374.43-15.78L374.43-15.78L374.43-15.78Q375.87-13.89 375.87-11.30L375.87-11.30L375.87-11.30Q375.87-8.70 374.62-6.34L374.62-6.34L374.62-6.34Q373.38-3.97 371.14-2.30L371.14-2.30L371.14-2.30Q366.34 1.28 358.66 1.28L358.66 1.28L358.66 1.28Q354.50 1.28 351.30-0.90L351.30-0.90L351.30-0.90Q348.10-3.01 348.10-5.50L348.10-5.50L348.10-5.50Q348.10-8 349.92-9.47L349.92-9.47L349.92-9.47Q351.74-10.94 354.43-10.94L354.43-10.94L354.43-10.94Q357.12-10.94 358.78-9.92L358.78-9.92L358.78-9.92Q357.95-7.81 357.95-6.40L357.95-6.40L357.95-6.40Q357.95-2.18 361.54-2.18L361.54-2.18L361.54-2.18Q363.07-2.18 364.10-3.14L364.10-3.14L364.10-3.14Q365.12-4.10 365.12-5.76L365.12-5.76L365.12-5.76Q365.12-9.02 359.62-12.48L359.62-12.48L359.62-12.48Q355.14-15.42 354.11-16.58L354.11-16.58L354.11-16.58Q352.38-18.62 352.38-21.18L352.38-21.18L352.38-21.18Q352.38-23.74 353.60-26.18L353.60-26.18L353.60-26.18Q354.82-28.61 357.06-30.34L357.06-30.34L357.06-30.34Q361.73-33.92 369.86-33.92L369.86-33.92L369.86-33.92Q374.02-33.92 376.48-32.26L376.48-32.26L376.48-32.26Q378.94-30.59 378.94-27.78L378.94-27.78L378.94-27.78Q378.94-24.96 377.25-23.36L377.25-23.36L377.25-23.36Q375.55-21.76 372.48-21.76L372.48-21.76L372.48-21.76Q370.37-21.76 369.34-22.46ZM401.86-2.69L401.86-2.69L401.86-2.69Q398.78 1.28 391.17 1.28L391.17 1.28L391.17 1.28Q387.20 1.28 384.32-1.12L384.32-1.12L384.32-1.12Q381.44-3.52 381.44-6.98L381.44-6.98L381.44-6.98Q381.44-8.90 381.63-9.86L381.63-9.86L385.92-32.64L398.91-33.92L394.24-9.22L394.24-9.22Q393.98-7.81 393.98-6.98L393.98-6.98L393.98-6.98Q393.98-3.26 396.22-3.26L396.22-3.26L396.22-3.26Q398.72-3.26 400.51-6.66L400.51-6.66L400.51-6.66Q401.09-7.74 401.34-9.15L401.34-9.15L405.89-32.64L418.50-33.92L413.76-8.96L413.76-8.96Q413.57-8 413.57-6.98L413.57-6.98L413.57-6.98Q413.57-5.95 414.14-4.83L414.14-4.83L414.14-4.83Q414.72-3.71 416.58-3.46L416.58-3.46L416.58-3.46Q416.19-1.92 414.85-0.90L414.85-0.90L414.85-0.90Q412.03 1.28 408.99 1.28L408.99 1.28L408.99 1.28Q405.95 1.28 404.16 0.19L404.16 0.19L404.16 0.19Q402.37-0.90 401.86-2.69ZM468.03 1.28L468.03 1.28L468.03 1.28Q460.29 1.28 460.29-4.74L460.29-4.74L460.29-4.74Q460.29-7.36 461.41-12.45L461.41-12.45L461.41-12.45Q462.53-17.54 462.91-19.58L462.91-19.58L462.91-19.58Q463.81-24.26 463.81-25.73L463.81-25.73L463.81-25.73Q463.81-28.99 461.38-28.99L461.38-28.99L461.38-28.99Q459.78-28.99 458.24-26.78L458.24-26.78L458.24-26.78Q456.70-24.58 456-20.16L456-20.16L452.03 0L439.55 1.28L443.01-16.13L443.01-16.13Q443.58-19.01 444.10-22.27L444.10-22.27L444.10-22.27Q444.61-25.54 444.61-26.05L444.61-26.05L444.61-26.05Q444.61-28.99 442.43-28.99L442.43-28.99L442.43-28.99Q440.96-28.99 439.36-26.82L439.36-26.82L439.36-26.82Q437.76-24.64 436.86-20.16L436.86-20.16L432.96 0L420.35 1.28L427.07-32.64L437.50-33.92L436.42-27.46L436.42-27.46Q438.08-30.91 441.15-32.42L441.15-32.42L441.15-32.42Q444.22-33.92 449.02-33.92L449.02-33.92L449.02-33.92Q451.78-33.92 453.57-32.58L453.57-32.58L453.57-32.58Q455.36-31.23 455.94-29.06L455.94-29.06L455.94-29.06Q457.02-31.30 459.81-32.61L459.81-32.61L459.81-32.61Q462.59-33.92 466.02-33.92L466.02-33.92L466.02-33.92Q469.44-33.92 471.14-33.18L471.14-33.18L471.14-33.18Q472.83-32.45 473.86-31.23L473.86-31.23L473.86-31.23Q475.58-28.99 475.58-24.90L475.58-24.90L475.58-24.90Q475.58-20.86 473.86-12.48L473.86-12.48L473.86-12.48Q472.96-8.38 472.96-6.88L472.96-6.88L472.96-6.88Q472.96-5.38 473.82-4.48L473.82-4.48L473.82-4.48Q474.69-3.58 475.97-3.46L475.97-3.46L475.97-3.46Q475.33-1.28 473.12 0L473.12 0L473.12 0Q470.91 1.28 468.03 1.28Z" fill="#ccc"></path></g></g><style>text {
  font-size: 64px;
  font-family: Arial Black;
  dominant-baseline: central;
  text-anchor: middle;
}</style></svg>